<?xml version="1.0" encoding="UTF-8" standalone="no"?>
<!DOCTYPE svg PUBLIC "-//W3C//DTD SVG 1.1//EN" "http://www.w3.org/Graphics/SVG/1.1/DTD/svg11.dtd">
<svg width="768.00" height="425.00" viewBox="0.00 0.00 768.00 425.00" xmlns="http://www.w3.org/2000/svg" xmlns:xlink="http://www.w3.org/1999/xlink">
<g stroke-linecap="round" transform="translate(0.00, -51.00)" id="Layer_2">
<path d="M445.43,190.87 C422.61,187.78 368.24,180.42 336.71,176.15 C296.47,170.70 215.98,159.81 175.74,154.36 C144.21,150.10 89.84,142.74 67.02,139.65 C89.49,135.52 142.74,125.76 173.51,120.11 C212.57,112.94 292.69,98.24 333.75,90.70 C366.80,84.63 424.74,73.96 449.64,69.36 C459.50,67.54 472.38,64.71 483.05,62.01 C487.24,61.02 495.02,60.49 499.53,60.89 C505.74,61.47 524.57,67.51 528.37,68.38 C532.22,69.23 539.40,69.99 543.33,70.17 C550.62,70.47 567.23,67.47 573.98,67.04 C577.71,66.82 584.42,67.31 587.38,67.75 C590.37,68.22 597.49,69.93 599.97,71.52 C602.98,73.53 608.46,80.24 611.48,85.68 C613.71,89.78 618.80,102.57 621.13,109.95 C622.98,116.00 627.95,134.92 629.44,143.18 C630.94,151.53 632.51,167.88 632.51,175.09 C632.49,184.20 630.37,201.82 628.31,210.07 C627.50,213.27 624.56,222.80 623.84,225.99 C623.01,229.78 622.21,236.99 622.25,240.40 C622.32,243.80 623.34,250.34 624.25,253.22 C625.43,256.87 628.91,263.37 631.30,266.41 C633.72,269.44 639.88,275.06 643.48,277.52 C648.75,280.98 654.23,285.09 657.22,287.89 C660.13,290.66 664.92,296.52 666.83,299.65 C668.74,302.85 671.50,309.66 672.33,313.38 C673.13,317.09 673.60,325.16 673.24,329.15 C672.73,333.38 671.84,341.52 671.99,345.51 C672.15,349.27 673.52,356.08 674.73,359.19 C676.02,362.37 679.86,368.26 682.53,370.91 C685.20,373.50 691.35,377.54 695.83,379.63 C700.73,381.91 706.77,385.33 709.74,387.50 C712.51,389.56 717.76,394.63 719.72,397.61 C721.79,400.81 724.25,408.02 724.62,411.95 C724.96,415.97 723.92,423.71 722.56,427.32 C721.10,431.05 717.63,436.16 715.05,438.77 C712.87,440.95 707.58,445.03 704.48,446.95 C697.93,450.95 682.50,456.88 673.27,458.90 C666.36,460.39 649.50,461.90 640.98,462.02 C630.73,462.14 614.63,460.97 607.24,459.07 C603.60,458.11 597.16,455.63 594.04,453.99 C590.96,452.33 585.01,447.61 582.43,444.75 C579.89,441.87 575.74,435.24 574.16,431.51 C571.50,425.12 568.00,407.86 567.77,400.71 C567.67,396.94 568.20,389.85 568.91,386.08 C569.63,382.36 571.89,375.29 573.40,372.04 C574.32,370.07 578.48,362.44 579.69,358.73 C580.85,355.09 582.13,346.89 582.22,342.64 C582.33,334.69 580.24,319.37 577.93,310.75 C575.68,302.45 568.80,283.89 565.54,277.04 C563.91,273.62 560.98,268.36 559.01,265.31 C556.68,261.78 550.48,255.23 546.85,253.89 C545.04,253.26 541.06,253.43 539.91,253.46 C538.36,253.49 535.48,252.64 534.24,251.76 C532.07,250.14 529.39,244.37 528.69,241.14 C527.43,234.98 527.84,215.75 529.30,207.09 C530.02,202.88 532.17,195.10 533.34,192.37 C535.24,188.03 540.10,181.30 542.90,179.10 C545.92,177.03 551.61,172.87 553.65,169.76 C555.44,166.94 557.53,160.01 557.85,156.44 C558.40,149.46 554.92,131.54 552.70,123.42 C551.19,118.17 548.71,110.95 546.83,106.95 C544.86,102.81 541.07,97.59 538.93,96.10 C537.88,95.46 535.26,95.51 533.98,96.45 C532.41,97.65 528.31,105.04 527.33,106.72" fill="none" stroke="rgb(255, 255, 255)" stroke-width="12.00" stroke-opacity="1.00" stroke-linejoin="miter"/>
<path d="M428.15,190.87 C429.27,193.72 432.84,202.81 433.40,205.33 C433.86,207.44 433.84,211.53 433.41,213.40 C432.64,216.45 428.52,221.51 424.74,224.14 C421.68,226.23 415.65,229.56 412.66,230.54 C409.81,231.45 403.49,231.32 400.36,230.69 C396.47,229.87 384.91,225.80 383.83,225.43 C383.49,227.87 382.18,237.20 382.12,237.74 C381.59,242.43 382.75,249.74 384.58,253.22 C386.18,256.17 391.46,261.53 394.97,263.77 C397.62,265.43 405.31,269.38 408.73,270.87 C412.64,272.53 419.34,274.14 423.31,273.83 C424.15,273.75 426.57,273.57 427.40,273.51" fill="none" stroke="rgb(255, 255, 255)" stroke-width="12.00" stroke-opacity="1.00" stroke-linejoin="miter"/>
<path d="M394.35,266.75 C392.31,268.40 387.18,272.56 384.08,275.08 C380.12,278.19 373.08,282.15 369.55,283.28 C365.26,284.59 358.10,284.85 353.04,283.97 C349.93,283.43 345.79,282.71 344.76,282.53 C342.73,297.18 341.37,309.07 343.83,313.82 C344.60,315.20 347.23,316.72 349.54,317.44 C356.05,319.32 369.49,321.02 374.06,321.59" fill="none" stroke="rgb(255, 255, 255)" stroke-width="12.00" stroke-opacity="1.00" stroke-linejoin="miter"/>
<path d="M353.77,321.59 C344.41,329.32 336.84,335.10 330.39,336.34 C327.08,336.92 320.72,335.79 317.22,334.55 C311.43,332.39 304.51,325.62 303.44,324.60 C301.69,328.85 299.15,334.95 299.42,338.11 C299.79,341.82 303.23,348.24 305.13,350.67 C307.65,353.84 313.35,359.07 317.07,361.31 C320.67,363.42 328.70,366.47 332.96,367.51 C340.24,369.24 366.89,371.10 368.05,371.18" fill="none" stroke="rgb(255, 255, 255)" stroke-width="12.00" stroke-opacity="1.00" stroke-linejoin="miter"/>
<path d="M458.55,115.18 C458.55,115.18 458.55,133.36 458.55,133.36" fill="none" stroke="rgb(255, 255, 255)" stroke-width="12.00" stroke-opacity="1.00" stroke-linejoin="miter"/>
<path d="M153.56,148.74 C153.56,148.74 154.80,126.08 154.80,126.08" fill="none" stroke="rgb(255, 255, 255)" stroke-width="12.00" stroke-opacity="1.00" stroke-linejoin="miter"/>
<path d="M154.49,126.08 C154.49,126.08 88.05,138.81 88.05,138.81" fill="none" stroke="rgb(255, 255, 255)" stroke-width="12.00" stroke-opacity="1.00" stroke-linejoin="miter"/>
<path d="M88.05,138.81 C88.05,138.81 149.52,144.40 149.52,144.40" fill="none" stroke="rgb(255, 255, 255)" stroke-width="12.00" stroke-opacity="1.00" stroke-linejoin="miter"/>
<path d="M149.21,136.32 C149.21,136.32 128.41,137.57 128.41,137.57" fill="none" stroke="rgb(255, 255, 255)" stroke-width="12.00" stroke-opacity="1.00" stroke-linejoin="miter"/>
<path d="M181.81,130.12 C181.81,130.12 181.81,130.12 181.81,130.12" fill="none" stroke="rgb(255, 255, 255)" stroke-width="12.00" stroke-opacity="1.00" stroke-linejoin="miter"/>
<path d="M206.03,127.32 C206.03,127.32 206.03,127.32 206.03,127.32" fill="none" stroke="rgb(255, 255, 255)" stroke-width="12.00" stroke-opacity="1.00" stroke-linejoin="miter"/>
<path d="M194.54,143.47 C194.54,143.47 194.54,143.47 194.54,143.47" fill="none" stroke="rgb(255, 255, 255)" stroke-width="12.00" stroke-opacity="1.00" stroke-linejoin="miter"/>
</g>
</svg>
